<svg xmlns="http://www.w3.org/2000/svg" xmlns:xlink="http://www.w3.org/1999/xlink" width="500" zoomAndPan="magnify" viewBox="0 0 375 374.999991" height="500" preserveAspectRatio="xMidYMid meet" version="1.0"><defs><g/><clipPath id="bf9579479c"><path d="M 109.890625 64.953125 L 259.890625 64.953125 L 259.890625 197.703125 L 109.890625 197.703125 Z M 109.890625 64.953125 " clip-rule="nonzero"/></clipPath><clipPath id="7194a3a8b7"><path d="M 146.101562 89.800781 L 148 89.800781 L 148 91 L 146.101562 91 Z M 146.101562 89.800781 " clip-rule="nonzero"/></clipPath><clipPath id="2f9f64210c"><path d="M 154 89.800781 L 156 89.800781 L 156 91 L 154 91 Z M 154 89.800781 " clip-rule="nonzero"/></clipPath><clipPath id="3e904758d6"><path d="M 150 89.800781 L 152 89.800781 L 152 93 L 150 93 Z M 150 89.800781 " clip-rule="nonzero"/></clipPath><clipPath id="10954b2878"><path d="M 146.101562 97 L 148 97 L 148 99 L 146.101562 99 Z M 146.101562 97 " clip-rule="nonzero"/></clipPath><clipPath id="dac4741b83"><path d="M 146.101562 93 L 150 93 L 150 95 L 146.101562 95 Z M 146.101562 93 " clip-rule="nonzero"/></clipPath><clipPath id="a3767deb9c"><path d="M 158 115 L 161 115 L 161 116.050781 L 158 116.050781 Z M 158 115 " clip-rule="nonzero"/></clipPath><clipPath id="a8f7c6f2d1"><path d="M 158 106 L 163.351562 106 L 163.351562 111 L 158 111 Z M 158 106 " clip-rule="nonzero"/></clipPath></defs><g clip-path="url(#bf9579479c)"><path fill="#000000" d="M 259.855469 161.148438 L 259.855469 76.480469 C 259.855469 75.722656 259.78125 74.976562 259.632812 74.230469 C 259.484375 73.488281 259.265625 72.769531 258.976562 72.070312 C 258.6875 71.371094 258.332031 70.707031 257.914062 70.074219 C 257.492188 69.445312 257.015625 68.863281 256.480469 68.328125 C 255.945312 67.792969 255.363281 67.316406 254.738281 66.894531 C 254.109375 66.472656 253.445312 66.117188 252.746094 65.828125 C 252.046875 65.539062 251.328125 65.320312 250.585938 65.171875 C 249.84375 65.027344 249.097656 64.953125 248.339844 64.953125 L 121.445312 64.953125 C 120.6875 64.953125 119.9375 65.027344 119.199219 65.171875 C 118.457031 65.320312 117.734375 65.539062 117.039062 65.828125 C 116.339844 66.117188 115.675781 66.472656 115.046875 66.894531 C 114.417969 67.316406 113.835938 67.792969 113.300781 68.328125 C 112.769531 68.863281 112.289062 69.445312 111.871094 70.074219 C 111.449219 70.707031 111.097656 71.371094 110.804688 72.070312 C 110.515625 72.769531 110.296875 73.488281 110.152344 74.230469 C 110.003906 74.976562 109.929688 75.722656 109.929688 76.480469 L 109.929688 161.148438 C 109.929688 161.90625 110.003906 162.652344 110.152344 163.398438 C 110.296875 164.140625 110.515625 164.859375 110.804688 165.558594 C 111.09375 166.257812 111.449219 166.921875 111.871094 167.554688 C 112.289062 168.183594 112.769531 168.765625 113.300781 169.300781 C 113.835938 169.835938 114.417969 170.3125 115.046875 170.734375 C 115.675781 171.15625 116.339844 171.511719 117.039062 171.800781 C 117.734375 172.089844 118.457031 172.308594 119.199219 172.457031 C 119.9375 172.601562 120.6875 172.675781 121.445312 172.675781 L 169.183594 172.675781 L 169.183594 179.347656 C 169.183594 179.960938 169.125 180.566406 169.003906 181.164062 C 168.886719 181.765625 168.710938 182.34375 168.476562 182.910156 C 168.242188 183.472656 167.957031 184.011719 167.617188 184.519531 C 167.277344 185.027344 166.894531 185.496094 166.460938 185.929688 C 166.03125 186.359375 165.5625 186.746094 165.054688 187.085938 C 164.546875 187.425781 164.011719 187.710938 163.445312 187.945312 C 162.882812 188.179688 162.300781 188.355469 161.703125 188.476562 C 161.105469 188.59375 160.5 188.652344 159.890625 188.652344 L 149.496094 188.652344 C 148.902344 188.652344 148.3125 188.710938 147.730469 188.828125 C 147.148438 188.945312 146.585938 189.113281 146.039062 189.34375 C 145.488281 189.570312 144.96875 189.847656 144.476562 190.179688 C 143.980469 190.507812 143.527344 190.882812 143.105469 191.304688 C 142.6875 191.722656 142.3125 192.179688 141.984375 192.675781 C 141.652344 193.167969 141.375 193.691406 141.148438 194.238281 C 140.921875 194.785156 140.75 195.351562 140.632812 195.933594 C 140.519531 196.519531 140.460938 197.105469 140.460938 197.699219 L 229.324219 197.699219 C 229.324219 197.105469 229.265625 196.519531 229.152344 195.933594 C 229.035156 195.351562 228.863281 194.785156 228.636719 194.238281 C 228.410156 193.691406 228.132812 193.167969 227.800781 192.675781 C 227.472656 192.179688 227.097656 191.722656 226.679688 191.304688 C 226.257812 190.882812 225.800781 190.507812 225.308594 190.179688 C 224.816406 189.847656 224.296875 189.570312 223.746094 189.34375 C 223.199219 189.113281 222.636719 188.941406 222.054688 188.828125 C 221.472656 188.710938 220.882812 188.652344 220.289062 188.652344 L 209.890625 188.652344 C 209.28125 188.652344 208.679688 188.59375 208.078125 188.476562 C 207.480469 188.355469 206.898438 188.179688 206.335938 187.945312 C 205.773438 187.710938 205.238281 187.425781 204.730469 187.085938 C 204.222656 186.746094 203.753906 186.359375 203.320312 185.929688 C 202.890625 185.496094 202.503906 185.027344 202.167969 184.519531 C 201.828125 184.011719 201.542969 183.472656 201.308594 182.910156 C 201.074219 182.34375 200.898438 181.765625 200.777344 181.164062 C 200.660156 180.566406 200.601562 179.960938 200.601562 179.347656 L 200.601562 172.675781 L 248.339844 172.675781 C 249.097656 172.675781 249.84375 172.601562 250.585938 172.457031 C 251.328125 172.308594 252.046875 172.089844 252.746094 171.800781 C 253.445312 171.511719 254.109375 171.15625 254.738281 170.734375 C 255.363281 170.3125 255.945312 169.835938 256.480469 169.300781 C 257.015625 168.765625 257.492188 168.183594 257.914062 167.554688 C 258.332031 166.921875 258.6875 166.257812 258.976562 165.558594 C 259.265625 164.859375 259.484375 164.140625 259.632812 163.398438 C 259.78125 162.652344 259.855469 161.90625 259.855469 161.148438 Z M 116.957031 156.890625 L 116.957031 76.984375 C 116.957031 76.664062 116.988281 76.351562 117.050781 76.039062 C 117.113281 75.726562 117.203125 75.421875 117.324219 75.128906 C 117.449219 74.835938 117.597656 74.554688 117.773438 74.292969 C 117.949219 74.027344 118.152344 73.78125 118.375 73.558594 C 118.601562 73.332031 118.84375 73.132812 119.109375 72.953125 C 119.371094 72.777344 119.652344 72.628906 119.945312 72.507812 C 120.238281 72.382812 120.542969 72.292969 120.851562 72.230469 C 121.164062 72.167969 121.480469 72.136719 121.796875 72.136719 L 247.984375 72.136719 C 248.304688 72.136719 248.617188 72.167969 248.929688 72.230469 C 249.242188 72.292969 249.542969 72.382812 249.839844 72.507812 C 250.132812 72.628906 250.410156 72.777344 250.675781 72.953125 C 250.9375 73.132812 251.183594 73.332031 251.410156 73.558594 C 251.632812 73.78125 251.832031 74.027344 252.011719 74.292969 C 252.1875 74.554688 252.335938 74.835938 252.457031 75.128906 C 252.578125 75.421875 252.671875 75.726562 252.734375 76.039062 C 252.796875 76.351562 252.824219 76.664062 252.824219 76.984375 L 252.824219 156.890625 C 252.824219 157.210938 252.796875 157.523438 252.734375 157.835938 C 252.671875 158.148438 252.578125 158.453125 252.457031 158.746094 C 252.335938 159.039062 252.1875 159.320312 252.011719 159.585938 C 251.832031 159.847656 251.632812 160.09375 251.410156 160.320312 C 251.183594 160.542969 250.9375 160.746094 250.675781 160.921875 C 250.410156 161.097656 250.132812 161.246094 249.839844 161.371094 C 249.542969 161.492188 249.242188 161.582031 248.929688 161.644531 C 248.617188 161.707031 248.304688 161.738281 247.984375 161.738281 L 121.796875 161.738281 C 121.480469 161.738281 121.164062 161.707031 120.851562 161.644531 C 120.542969 161.582031 120.238281 161.492188 119.945312 161.371094 C 119.652344 161.246094 119.371094 161.097656 119.109375 160.921875 C 118.84375 160.746094 118.601562 160.542969 118.375 160.320312 C 118.152344 160.09375 117.949219 159.847656 117.773438 159.585938 C 117.597656 159.320312 117.449219 159.039062 117.324219 158.746094 C 117.203125 158.453125 117.113281 158.148438 117.050781 157.835938 C 116.988281 157.523438 116.957031 157.210938 116.957031 156.890625 Z M 116.957031 156.890625 " fill-opacity="1" fill-rule="nonzero"/></g><g clip-path="url(#7194a3a8b7)"><path fill="#000000" d="M 146.101562 89.808594 L 147.117188 89.808594 L 147.117188 90.816406 L 146.101562 90.816406 Z M 146.101562 89.808594 " fill-opacity="1" fill-rule="nonzero"/></g><g clip-path="url(#2f9f64210c)"><path fill="#000000" d="M 154.21875 89.808594 L 155.234375 89.808594 L 155.234375 90.816406 L 154.21875 90.816406 Z M 154.21875 89.808594 " fill-opacity="1" fill-rule="nonzero"/></g><path fill="#000000" d="M 153.203125 90.816406 L 154.21875 90.816406 L 154.21875 91.824219 L 153.203125 91.824219 Z M 153.203125 90.816406 " fill-opacity="1" fill-rule="nonzero"/><path fill="#000000" d="M 147.117188 90.816406 L 148.132812 90.816406 L 148.132812 91.824219 L 147.117188 91.824219 Z M 147.117188 90.816406 " fill-opacity="1" fill-rule="nonzero"/><path fill="#000000" d="M 152.1875 91.824219 L 153.203125 91.824219 L 153.203125 92.835938 L 152.1875 92.835938 Z M 152.1875 91.824219 " fill-opacity="1" fill-rule="nonzero"/><g clip-path="url(#3e904758d6)"><path fill="#000000" d="M 151.175781 91.824219 L 151.175781 89.808594 L 150.160156 89.808594 L 150.160156 92.835938 L 151.175781 92.835938 Z M 151.175781 91.824219 " fill-opacity="1" fill-rule="nonzero"/></g><path fill="#000000" d="M 148.132812 91.824219 L 149.144531 91.824219 L 149.144531 92.835938 L 148.132812 92.835938 Z M 148.132812 91.824219 " fill-opacity="1" fill-rule="nonzero"/><g clip-path="url(#10954b2878)"><path fill="#000000" d="M 146.101562 97.878906 L 147.117188 97.878906 L 147.117188 98.890625 L 146.101562 98.890625 Z M 146.101562 97.878906 " fill-opacity="1" fill-rule="nonzero"/></g><path fill="#000000" d="M 158.277344 102.925781 L 159.292969 102.925781 L 159.292969 103.9375 L 158.277344 103.9375 Z M 158.277344 102.925781 " fill-opacity="1" fill-rule="nonzero"/><path fill="#000000" d="M 157.261719 101.917969 L 158.277344 101.917969 L 158.277344 102.925781 L 157.261719 102.925781 Z M 157.261719 101.917969 " fill-opacity="1" fill-rule="nonzero"/><path fill="#000000" d="M 156.246094 100.910156 L 157.261719 100.910156 L 157.261719 101.917969 L 156.246094 101.917969 Z M 156.246094 100.910156 " fill-opacity="1" fill-rule="nonzero"/><path fill="#000000" d="M 155.234375 99.898438 L 156.246094 99.898438 L 156.246094 100.910156 L 155.234375 100.910156 Z M 155.234375 99.898438 " fill-opacity="1" fill-rule="nonzero"/><path fill="#000000" d="M 154.21875 98.890625 L 155.234375 98.890625 L 155.234375 99.898438 L 154.21875 99.898438 Z M 154.21875 98.890625 " fill-opacity="1" fill-rule="nonzero"/><path fill="#000000" d="M 153.203125 97.878906 L 154.21875 97.878906 L 154.21875 98.890625 L 153.203125 98.890625 Z M 153.203125 97.878906 " fill-opacity="1" fill-rule="nonzero"/><path fill="#000000" d="M 154.21875 94.851562 L 155.234375 94.851562 L 155.234375 93.84375 L 152.1875 93.84375 L 152.1875 94.851562 Z M 154.21875 94.851562 " fill-opacity="1" fill-rule="nonzero"/><path fill="#000000" d="M 152.1875 96.871094 L 153.203125 96.871094 L 153.203125 97.878906 L 152.1875 97.878906 Z M 152.1875 96.871094 " fill-opacity="1" fill-rule="nonzero"/><path fill="#000000" d="M 148.132812 95.863281 L 149.144531 95.863281 L 149.144531 96.871094 L 148.132812 96.871094 Z M 148.132812 95.863281 " fill-opacity="1" fill-rule="nonzero"/><path fill="#000000" d="M 147.117188 96.871094 L 148.132812 96.871094 L 148.132812 97.878906 L 147.117188 97.878906 Z M 147.117188 96.871094 " fill-opacity="1" fill-rule="nonzero"/><g clip-path="url(#dac4741b83)"><path fill="#000000" d="M 147.117188 93.84375 L 146.101562 93.84375 L 146.101562 94.851562 L 149.144531 94.851562 L 149.144531 93.84375 Z M 147.117188 93.84375 " fill-opacity="1" fill-rule="nonzero"/></g><path fill="#000000" d="M 159.289062 103.9375 L 160.304688 103.9375 L 160.304688 104.945312 L 159.289062 104.945312 Z M 159.289062 103.9375 " fill-opacity="1" fill-rule="nonzero"/><path fill="#000000" d="M 160.304688 104.945312 L 161.320312 104.945312 L 161.320312 105.953125 L 160.304688 105.953125 Z M 160.304688 104.945312 " fill-opacity="1" fill-rule="nonzero"/><path fill="#ffffff" d="M 158.277344 109.992188 L 158.277344 107.972656 L 162.335938 107.972656 L 162.335938 106.964844 L 161.320312 106.964844 L 161.320312 105.953125 L 160.304688 105.953125 L 160.304688 104.945312 L 159.289062 104.945312 L 159.289062 103.9375 L 158.277344 103.9375 L 158.277344 102.925781 L 157.261719 102.925781 L 157.261719 101.917969 L 156.246094 101.917969 L 156.246094 100.910156 L 155.234375 100.910156 L 155.234375 99.898438 L 154.21875 99.898438 L 154.21875 98.890625 L 153.203125 98.890625 L 153.203125 97.878906 L 152.1875 97.878906 L 152.1875 96.871094 L 151.175781 96.871094 L 151.175781 113.019531 L 152.1875 113.019531 L 152.1875 112.011719 L 153.203125 112.011719 L 153.203125 111 L 154.21875 111 L 154.21875 109.992188 L 156.246094 109.992188 L 156.246094 111 L 157.261719 111 L 157.261719 113.019531 L 158.277344 113.019531 L 158.277344 115.039062 L 160.304688 115.039062 L 160.304688 113.019531 L 159.289062 113.019531 L 159.289062 111 L 158.277344 111 Z M 158.277344 109.992188 " fill-opacity="1" fill-rule="nonzero"/><path fill="#000000" d="M 155.234375 109.992188 L 154.21875 109.992188 L 154.21875 111 L 156.246094 111 L 156.246094 109.992188 Z M 155.234375 109.992188 " fill-opacity="1" fill-rule="nonzero"/><path fill="#000000" d="M 157.261719 111 L 156.246094 111 L 156.246094 113.019531 L 157.261719 113.019531 Z M 157.261719 111 " fill-opacity="1" fill-rule="nonzero"/><path fill="#000000" d="M 153.203125 111 L 154.21875 111 L 154.21875 112.011719 L 153.203125 112.011719 Z M 153.203125 111 " fill-opacity="1" fill-rule="nonzero"/><path fill="#000000" d="M 152.1875 112.011719 L 153.203125 112.011719 L 153.203125 113.019531 L 152.1875 113.019531 Z M 152.1875 112.011719 " fill-opacity="1" fill-rule="nonzero"/><path fill="#000000" d="M 151.175781 112.011719 L 151.175781 96.871094 L 152.1875 96.871094 L 152.1875 95.863281 L 151.175781 95.863281 L 151.175781 94.851562 L 150.160156 94.851562 L 150.160156 114.027344 L 152.1875 114.027344 L 152.1875 113.019531 L 151.175781 113.019531 Z M 151.175781 112.011719 " fill-opacity="1" fill-rule="nonzero"/><path fill="#000000" d="M 158.277344 113.019531 L 157.261719 113.019531 L 157.261719 115.039062 L 158.277344 115.039062 Z M 158.277344 113.019531 " fill-opacity="1" fill-rule="nonzero"/><g clip-path="url(#a3767deb9c)"><path fill="#000000" d="M 158.277344 115.039062 L 158.277344 116.046875 L 160.304688 116.046875 L 160.304688 115.039062 Z M 158.277344 115.039062 " fill-opacity="1" fill-rule="nonzero"/></g><path fill="#000000" d="M 161.320312 105.953125 L 162.335938 105.953125 L 162.335938 106.964844 L 161.320312 106.964844 Z M 161.320312 105.953125 " fill-opacity="1" fill-rule="nonzero"/><g clip-path="url(#a8f7c6f2d1)"><path fill="#000000" d="M 162.335938 106.964844 L 162.335938 107.972656 L 158.277344 107.972656 L 158.277344 111 L 159.289062 111 L 159.289062 108.984375 L 163.347656 108.984375 L 163.347656 106.964844 Z M 162.335938 106.964844 " fill-opacity="1" fill-rule="nonzero"/></g><path fill="#000000" d="M 159.289062 113.019531 L 160.304688 113.019531 L 160.304688 111 L 159.289062 111 Z M 159.289062 113.019531 " fill-opacity="1" fill-rule="nonzero"/><path fill="#000000" d="M 160.304688 115.039062 L 161.320312 115.039062 L 161.320312 113.019531 L 160.304688 113.019531 Z M 160.304688 115.039062 " fill-opacity="1" fill-rule="nonzero"/><g fill="#1a1a40" fill-opacity="1"><g transform="translate(38.665241, 253.607883)"><g><path d="M 17.46875 -17.5 L 17.46875 0 L 15.65625 0 L 15.65625 -8.078125 L 4.703125 -8.078125 L 4.703125 0 L 2.84375 0 L 2.84375 -17.5 L 4.703125 -17.5 L 4.703125 -9.703125 L 15.65625 -9.703125 L 15.65625 -17.5 Z M 17.46875 -17.5 "/></g></g></g><g fill="#1a1a40" fill-opacity="1"><g transform="translate(60.487003, 253.607883)"><g><path d="M 15.21875 -1.59375 L 15.21875 0 L 2.84375 0 L 2.84375 -17.5 L 14.84375 -17.5 L 14.84375 -15.90625 L 4.703125 -15.90625 L 4.703125 -9.671875 L 13.75 -9.671875 L 13.75 -8.09375 L 4.703125 -8.09375 L 4.703125 -1.59375 Z M 15.21875 -1.59375 "/></g></g></g><g fill="#1a1a40" fill-opacity="1"><g transform="translate(78.709335, 253.607883)"><g><path d="M 13.828125 -4.671875 L 4.078125 -4.671875 L 1.96875 0 L 0.046875 0 L 8.046875 -17.5 L 9.875 -17.5 L 17.875 0 L 15.921875 0 Z M 13.15625 -6.171875 L 8.953125 -15.578125 L 4.75 -6.171875 Z M 13.15625 -6.171875 "/></g></g></g><g fill="#1a1a40" fill-opacity="1"><g transform="translate(98.131473, 253.607883)"><g><path d="M 6.25 -15.90625 L 0.09375 -15.90625 L 0.09375 -17.5 L 14.25 -17.5 L 14.25 -15.90625 L 8.09375 -15.90625 L 8.09375 0 L 6.25 0 Z M 6.25 -15.90625 "/></g></g></g><g fill="#1a1a40" fill-opacity="1"><g transform="translate(113.979194, 253.607883)"><g><path d="M 17.46875 -17.5 L 17.46875 0 L 15.65625 0 L 15.65625 -8.078125 L 4.703125 -8.078125 L 4.703125 0 L 2.84375 0 L 2.84375 -17.5 L 4.703125 -17.5 L 4.703125 -9.703125 L 15.65625 -9.703125 L 15.65625 -17.5 Z M 17.46875 -17.5 "/></g></g></g><g fill="#1a1a40" fill-opacity="1"><g transform="translate(135.800958, 253.607883)"><g/></g></g><g fill="#1a1a40" fill-opacity="1"><g transform="translate(143.849908, 253.607883)"><g><path d="M 10.453125 0.15625 C 8.710938 0.15625 7.144531 -0.226562 5.75 -1 C 4.363281 -1.769531 3.273438 -2.832031 2.484375 -4.1875 C 1.691406 -5.539062 1.296875 -7.0625 1.296875 -8.75 C 1.296875 -10.4375 1.691406 -11.957031 2.484375 -13.3125 C 3.273438 -14.664062 4.367188 -15.726562 5.765625 -16.5 C 7.171875 -17.269531 8.738281 -17.65625 10.46875 -17.65625 C 11.769531 -17.65625 12.96875 -17.4375 14.0625 -17 C 15.164062 -16.5625 16.101562 -15.925781 16.875 -15.09375 L 15.703125 -13.921875 C 14.335938 -15.304688 12.613281 -16 10.53125 -16 C 9.144531 -16 7.882812 -15.679688 6.75 -15.046875 C 5.613281 -14.410156 4.722656 -13.539062 4.078125 -12.4375 C 3.441406 -11.34375 3.125 -10.113281 3.125 -8.75 C 3.125 -7.382812 3.441406 -6.148438 4.078125 -5.046875 C 4.722656 -3.953125 5.613281 -3.085938 6.75 -2.453125 C 7.882812 -1.816406 9.144531 -1.5 10.53125 -1.5 C 12.625 -1.5 14.347656 -2.195312 15.703125 -3.59375 L 16.875 -2.421875 C 16.101562 -1.585938 15.164062 -0.945312 14.0625 -0.5 C 12.957031 -0.0625 11.753906 0.15625 10.453125 0.15625 Z M 10.453125 0.15625 "/></g></g></g><g fill="#1a1a40" fill-opacity="1"><g transform="translate(163.322052, 253.607883)"><g><path d="M 14.796875 0 L 10.796875 -5.625 C 10.347656 -5.570312 9.882812 -5.546875 9.40625 -5.546875 L 4.703125 -5.546875 L 4.703125 0 L 2.84375 0 L 2.84375 -17.5 L 9.40625 -17.5 C 11.632812 -17.5 13.378906 -16.960938 14.640625 -15.890625 C 15.910156 -14.828125 16.546875 -13.363281 16.546875 -11.5 C 16.546875 -10.132812 16.195312 -8.976562 15.5 -8.03125 C 14.8125 -7.09375 13.828125 -6.414062 12.546875 -6 L 16.828125 0 Z M 9.34375 -7.125 C 11.082031 -7.125 12.410156 -7.503906 13.328125 -8.265625 C 14.242188 -9.035156 14.703125 -10.113281 14.703125 -11.5 C 14.703125 -12.914062 14.242188 -14.003906 13.328125 -14.765625 C 12.410156 -15.523438 11.082031 -15.90625 9.34375 -15.90625 L 4.703125 -15.90625 L 4.703125 -7.125 Z M 9.34375 -7.125 "/></g></g></g><g fill="#1a1a40" fill-opacity="1"><g transform="translate(182.894182, 253.607883)"><g><path d="M 15.21875 -1.59375 L 15.21875 0 L 2.84375 0 L 2.84375 -17.5 L 14.84375 -17.5 L 14.84375 -15.90625 L 4.703125 -15.90625 L 4.703125 -9.671875 L 13.75 -9.671875 L 13.75 -8.09375 L 4.703125 -8.09375 L 4.703125 -1.59375 Z M 15.21875 -1.59375 "/></g></g></g><g fill="#1a1a40" fill-opacity="1"><g transform="translate(201.116517, 253.607883)"><g><path d="M 13.828125 -4.671875 L 4.078125 -4.671875 L 1.96875 0 L 0.046875 0 L 8.046875 -17.5 L 9.875 -17.5 L 17.875 0 L 15.921875 0 Z M 13.15625 -6.171875 L 8.953125 -15.578125 L 4.75 -6.171875 Z M 13.15625 -6.171875 "/></g></g></g><g fill="#1a1a40" fill-opacity="1"><g transform="translate(220.538661, 253.607883)"><g><path d="M 6.25 -15.90625 L 0.09375 -15.90625 L 0.09375 -17.5 L 14.25 -17.5 L 14.25 -15.90625 L 8.09375 -15.90625 L 8.09375 0 L 6.25 0 Z M 6.25 -15.90625 "/></g></g></g><g fill="#1a1a40" fill-opacity="1"><g transform="translate(236.386382, 253.607883)"><g><path d="M 2.84375 -17.5 L 4.703125 -17.5 L 4.703125 0 L 2.84375 0 Z M 2.84375 -17.5 "/></g></g></g><g fill="#1a1a40" fill-opacity="1"><g transform="translate(245.435179, 253.607883)"><g><path d="M 17.40625 -17.5 L 9.65625 0 L 7.828125 0 L 0.078125 -17.5 L 2.078125 -17.5 L 8.78125 -2.296875 L 15.53125 -17.5 Z M 17.40625 -17.5 "/></g></g></g><g fill="#1a1a40" fill-opacity="1"><g transform="translate(264.382405, 253.607883)"><g><path d="M 15.21875 -1.59375 L 15.21875 0 L 2.84375 0 L 2.84375 -17.5 L 14.84375 -17.5 L 14.84375 -15.90625 L 4.703125 -15.90625 L 4.703125 -9.671875 L 13.75 -9.671875 L 13.75 -8.09375 L 4.703125 -8.09375 L 4.703125 -1.59375 Z M 15.21875 -1.59375 "/></g></g></g><g fill="#1a1a40" fill-opacity="1"><g transform="translate(282.60474, 253.607883)"><g/></g></g><g fill="#1a1a40" fill-opacity="1"><g transform="translate(290.653689, 253.607883)"><g><path d="M 10.453125 0.15625 C 8.710938 0.15625 7.144531 -0.226562 5.75 -1 C 4.363281 -1.769531 3.273438 -2.832031 2.484375 -4.1875 C 1.691406 -5.539062 1.296875 -7.0625 1.296875 -8.75 C 1.296875 -10.4375 1.691406 -11.957031 2.484375 -13.3125 C 3.273438 -14.664062 4.367188 -15.726562 5.765625 -16.5 C 7.171875 -17.269531 8.738281 -17.65625 10.46875 -17.65625 C 11.769531 -17.65625 12.96875 -17.4375 14.0625 -17 C 15.164062 -16.5625 16.101562 -15.925781 16.875 -15.09375 L 15.703125 -13.921875 C 14.335938 -15.304688 12.613281 -16 10.53125 -16 C 9.144531 -16 7.882812 -15.679688 6.75 -15.046875 C 5.613281 -14.410156 4.722656 -13.539062 4.078125 -12.4375 C 3.441406 -11.34375 3.125 -10.113281 3.125 -8.75 C 3.125 -7.382812 3.441406 -6.148438 4.078125 -5.046875 C 4.722656 -3.953125 5.613281 -3.085938 6.75 -2.453125 C 7.882812 -1.816406 9.144531 -1.5 10.53125 -1.5 C 12.625 -1.5 14.347656 -2.195312 15.703125 -3.59375 L 16.875 -2.421875 C 16.101562 -1.585938 15.164062 -0.945312 14.0625 -0.5 C 12.957031 -0.0625 11.753906 0.15625 10.453125 0.15625 Z M 10.453125 0.15625 "/></g></g></g><g fill="#1a1a40" fill-opacity="1"><g transform="translate(310.125833, 253.607883)"><g><path d="M 10.5 0.15625 C 8.769531 0.15625 7.195312 -0.226562 5.78125 -1 C 4.375 -1.78125 3.273438 -2.84375 2.484375 -4.1875 C 1.691406 -5.539062 1.296875 -7.0625 1.296875 -8.75 C 1.296875 -10.4375 1.691406 -11.953125 2.484375 -13.296875 C 3.273438 -14.648438 4.375 -15.710938 5.78125 -16.484375 C 7.195312 -17.265625 8.769531 -17.65625 10.5 -17.65625 C 12.226562 -17.65625 13.789062 -17.269531 15.1875 -16.5 C 16.582031 -15.726562 17.675781 -14.664062 18.46875 -13.3125 C 19.269531 -11.957031 19.671875 -10.4375 19.671875 -8.75 C 19.671875 -7.0625 19.269531 -5.539062 18.46875 -4.1875 C 17.675781 -2.832031 16.582031 -1.769531 15.1875 -1 C 13.789062 -0.226562 12.226562 0.15625 10.5 0.15625 Z M 10.5 -1.5 C 11.882812 -1.5 13.132812 -1.8125 14.25 -2.4375 C 15.363281 -3.0625 16.238281 -3.925781 16.875 -5.03125 C 17.507812 -6.144531 17.828125 -7.382812 17.828125 -8.75 C 17.828125 -10.113281 17.507812 -11.347656 16.875 -12.453125 C 16.238281 -13.566406 15.363281 -14.4375 14.25 -15.0625 C 13.132812 -15.6875 11.882812 -16 10.5 -16 C 9.113281 -16 7.859375 -15.6875 6.734375 -15.0625 C 5.609375 -14.4375 4.722656 -13.566406 4.078125 -12.453125 C 3.441406 -11.347656 3.125 -10.113281 3.125 -8.75 C 3.125 -7.382812 3.441406 -6.144531 4.078125 -5.03125 C 4.722656 -3.925781 5.609375 -3.0625 6.734375 -2.4375 C 7.859375 -1.8125 9.113281 -1.5 10.5 -1.5 Z M 10.5 -1.5 "/></g></g></g><g fill="#daa520" fill-opacity="1"><g transform="translate(67.520493, 281.681934)"><g><path d="M 17.203125 -11.203125 L 13.421875 0 L 12.171875 0 L 8.890625 -9.546875 L 5.59375 0 L 4.375 0 L 0.59375 -11.203125 L 1.8125 -11.203125 L 5.046875 -1.5625 L 8.390625 -11.203125 L 9.484375 -11.203125 L 12.78125 -1.515625 L 16.0625 -11.203125 Z M 17.203125 -11.203125 "/></g></g></g><g fill="#daa520" fill-opacity="1"><g transform="translate(86.940226, 281.681934)"><g><path d="M 9.75 -1.03125 L 9.75 0 L 1.828125 0 L 1.828125 -11.203125 L 9.5 -11.203125 L 9.5 -10.171875 L 3.015625 -10.171875 L 3.015625 -6.1875 L 8.796875 -6.1875 L 8.796875 -5.1875 L 3.015625 -5.1875 L 3.015625 -1.03125 Z M 9.75 -1.03125 "/></g></g></g><g fill="#daa520" fill-opacity="1"><g transform="translate(99.289651, 281.681934)"><g><path d="M 8.875 -5.78125 C 9.613281 -5.613281 10.179688 -5.289062 10.578125 -4.8125 C 10.984375 -4.34375 11.1875 -3.734375 11.1875 -2.984375 C 11.1875 -2.023438 10.832031 -1.285156 10.125 -0.765625 C 9.414062 -0.253906 8.363281 0 6.96875 0 L 1.828125 0 L 1.828125 -11.203125 L 6.65625 -11.203125 C 7.90625 -11.203125 8.875 -10.953125 9.5625 -10.453125 C 10.25 -9.953125 10.59375 -9.238281 10.59375 -8.3125 C 10.59375 -7.695312 10.441406 -7.171875 10.140625 -6.734375 C 9.835938 -6.304688 9.414062 -5.988281 8.875 -5.78125 Z M 3.015625 -10.21875 L 3.015625 -6.15625 L 6.578125 -6.15625 C 7.484375 -6.15625 8.179688 -6.328125 8.671875 -6.671875 C 9.160156 -7.023438 9.40625 -7.53125 9.40625 -8.1875 C 9.40625 -8.851562 9.160156 -9.359375 8.671875 -9.703125 C 8.179688 -10.046875 7.484375 -10.21875 6.578125 -10.21875 Z M 6.953125 -0.96875 C 7.960938 -0.96875 8.722656 -1.140625 9.234375 -1.484375 C 9.742188 -1.828125 10 -2.363281 10 -3.09375 C 10 -4.488281 8.984375 -5.1875 6.953125 -5.1875 L 3.015625 -5.1875 L 3.015625 -0.96875 Z M 6.953125 -0.96875 "/></g></g></g><g fill="#daa520" fill-opacity="1"><g transform="translate(118.837743, 281.681934)"><g><path d="M 1.828125 -11.203125 L 6.390625 -11.203125 C 7.566406 -11.203125 8.609375 -10.960938 9.515625 -10.484375 C 10.421875 -10.015625 11.125 -9.351562 11.625 -8.5 C 12.132812 -7.65625 12.390625 -6.6875 12.390625 -5.59375 C 12.390625 -4.507812 12.132812 -3.539062 11.625 -2.6875 C 11.125 -1.84375 10.421875 -1.179688 9.515625 -0.703125 C 8.609375 -0.234375 7.566406 0 6.390625 0 L 1.828125 0 Z M 6.3125 -1.03125 C 7.300781 -1.03125 8.160156 -1.222656 8.890625 -1.609375 C 9.628906 -1.992188 10.203125 -2.53125 10.609375 -3.21875 C 11.015625 -3.90625 11.21875 -4.695312 11.21875 -5.59375 C 11.21875 -6.488281 11.015625 -7.28125 10.609375 -7.96875 C 10.203125 -8.664062 9.628906 -9.207031 8.890625 -9.59375 C 8.160156 -9.976562 7.300781 -10.171875 6.3125 -10.171875 L 3.015625 -10.171875 L 3.015625 -1.03125 Z M 6.3125 -1.03125 "/></g></g></g><g fill="#daa520" fill-opacity="1"><g transform="translate(133.698559, 281.681934)"><g><path d="M 9.75 -1.03125 L 9.75 0 L 1.828125 0 L 1.828125 -11.203125 L 9.5 -11.203125 L 9.5 -10.171875 L 3.015625 -10.171875 L 3.015625 -6.1875 L 8.796875 -6.1875 L 8.796875 -5.1875 L 3.015625 -5.1875 L 3.015625 -1.03125 Z M 9.75 -1.03125 "/></g></g></g><g fill="#daa520" fill-opacity="1"><g transform="translate(146.047981, 281.681934)"><g><path d="M 4.90625 0.09375 C 4.070312 0.09375 3.273438 -0.0351562 2.515625 -0.296875 C 1.753906 -0.566406 1.164062 -0.921875 0.75 -1.359375 L 1.21875 -2.265625 C 1.625 -1.859375 2.160156 -1.53125 2.828125 -1.28125 C 3.503906 -1.03125 4.195312 -0.90625 4.90625 -0.90625 C 5.914062 -0.90625 6.671875 -1.085938 7.171875 -1.453125 C 7.671875 -1.828125 7.921875 -2.304688 7.921875 -2.890625 C 7.921875 -3.335938 7.785156 -3.695312 7.515625 -3.96875 C 7.242188 -4.238281 6.910156 -4.441406 6.515625 -4.578125 C 6.117188 -4.722656 5.566406 -4.882812 4.859375 -5.0625 C 4.015625 -5.269531 3.34375 -5.472656 2.84375 -5.671875 C 2.34375 -5.867188 1.914062 -6.171875 1.5625 -6.578125 C 1.207031 -6.984375 1.03125 -7.53125 1.03125 -8.21875 C 1.03125 -8.789062 1.175781 -9.304688 1.46875 -9.765625 C 1.769531 -10.234375 2.226562 -10.601562 2.84375 -10.875 C 3.46875 -11.15625 4.238281 -11.296875 5.15625 -11.296875 C 5.789062 -11.296875 6.414062 -11.207031 7.03125 -11.03125 C 7.644531 -10.851562 8.175781 -10.609375 8.625 -10.296875 L 8.21875 -9.359375 C 7.75 -9.671875 7.25 -9.898438 6.71875 -10.046875 C 6.1875 -10.203125 5.664062 -10.28125 5.15625 -10.28125 C 4.175781 -10.28125 3.4375 -10.09375 2.9375 -9.71875 C 2.4375 -9.34375 2.1875 -8.851562 2.1875 -8.25 C 2.1875 -7.800781 2.320312 -7.441406 2.59375 -7.171875 C 2.875 -6.898438 3.21875 -6.691406 3.625 -6.546875 C 4.03125 -6.410156 4.582031 -6.253906 5.28125 -6.078125 C 6.101562 -5.878906 6.765625 -5.679688 7.265625 -5.484375 C 7.773438 -5.285156 8.207031 -4.984375 8.5625 -4.578125 C 8.914062 -4.179688 9.09375 -3.640625 9.09375 -2.953125 C 9.09375 -2.390625 8.9375 -1.875 8.625 -1.40625 C 8.320312 -0.945312 7.851562 -0.582031 7.21875 -0.3125 C 6.59375 -0.0390625 5.820312 0.09375 4.90625 0.09375 Z M 4.90625 0.09375 "/></g></g></g><g fill="#daa520" fill-opacity="1"><g transform="translate(157.533614, 281.681934)"><g><path d="M 1.828125 -11.203125 L 3.015625 -11.203125 L 3.015625 0 L 1.828125 0 Z M 1.828125 -11.203125 "/></g></g></g><g fill="#daa520" fill-opacity="1"><g transform="translate(164.012446, 281.681934)"><g><path d="M 9.71875 -5.59375 L 10.84375 -5.59375 L 10.84375 -1.328125 C 10.320312 -0.867188 9.703125 -0.515625 8.984375 -0.265625 C 8.273438 -0.0234375 7.523438 0.09375 6.734375 0.09375 C 5.617188 0.09375 4.613281 -0.148438 3.71875 -0.640625 C 2.820312 -1.128906 2.113281 -1.804688 1.59375 -2.671875 C 1.082031 -3.546875 0.828125 -4.519531 0.828125 -5.59375 C 0.828125 -6.675781 1.082031 -7.648438 1.59375 -8.515625 C 2.113281 -9.390625 2.820312 -10.070312 3.71875 -10.5625 C 4.613281 -11.050781 5.625 -11.296875 6.75 -11.296875 C 7.601562 -11.296875 8.382812 -11.160156 9.09375 -10.890625 C 9.8125 -10.617188 10.414062 -10.21875 10.90625 -9.6875 L 10.171875 -8.921875 C 9.285156 -9.796875 8.160156 -10.234375 6.796875 -10.234375 C 5.890625 -10.234375 5.070312 -10.035156 4.34375 -9.640625 C 3.613281 -9.242188 3.039062 -8.6875 2.625 -7.96875 C 2.207031 -7.257812 2 -6.46875 2 -5.59375 C 2 -4.71875 2.207031 -3.925781 2.625 -3.21875 C 3.039062 -2.519531 3.609375 -1.96875 4.328125 -1.5625 C 5.054688 -1.15625 5.875 -0.953125 6.78125 -0.953125 C 7.9375 -0.953125 8.914062 -1.242188 9.71875 -1.828125 Z M 9.71875 -5.59375 "/></g></g></g><g fill="#daa520" fill-opacity="1"><g transform="translate(178.025472, 281.681934)"><g><path d="M 11.1875 -11.203125 L 11.1875 0 L 10.203125 0 L 3.015625 -9.09375 L 3.015625 0 L 1.828125 0 L 1.828125 -11.203125 L 2.796875 -11.203125 L 10.015625 -2.109375 L 10.015625 -11.203125 Z M 11.1875 -11.203125 "/></g></g></g><g fill="#daa520" fill-opacity="1"><g transform="translate(192.678337, 281.681934)"><g/></g></g><g fill="#daa520" fill-opacity="1"><g transform="translate(198.51733, 281.681934)"><g><path d="M 9.84375 0.171875 L 8.28125 -1.421875 C 7.332031 -0.410156 6.085938 0.09375 4.546875 0.09375 C 3.816406 0.09375 3.164062 -0.0234375 2.59375 -0.265625 C 2.03125 -0.503906 1.585938 -0.835938 1.265625 -1.265625 C 0.941406 -1.703125 0.78125 -2.195312 0.78125 -2.75 C 0.78125 -3.425781 0.992188 -4.03125 1.421875 -4.5625 C 1.847656 -5.09375 2.570312 -5.648438 3.59375 -6.234375 C 3.0625 -6.796875 2.691406 -7.269531 2.484375 -7.65625 C 2.285156 -8.039062 2.1875 -8.453125 2.1875 -8.890625 C 2.1875 -9.609375 2.441406 -10.1875 2.953125 -10.625 C 3.472656 -11.0625 4.164062 -11.28125 5.03125 -11.28125 C 5.820312 -11.28125 6.453125 -11.082031 6.921875 -10.6875 C 7.390625 -10.289062 7.625 -9.75 7.625 -9.0625 C 7.625 -8.5 7.4375 -7.992188 7.0625 -7.546875 C 6.695312 -7.109375 6.054688 -6.625 5.140625 -6.09375 L 8.203125 -2.921875 C 8.546875 -3.535156 8.796875 -4.257812 8.953125 -5.09375 L 9.890625 -4.796875 C 9.679688 -3.796875 9.347656 -2.9375 8.890625 -2.21875 L 10.5 -0.578125 Z M 5.03125 -10.4375 C 4.46875 -10.4375 4.03125 -10.296875 3.71875 -10.015625 C 3.40625 -9.734375 3.25 -9.363281 3.25 -8.90625 C 3.25 -8.582031 3.332031 -8.269531 3.5 -7.96875 C 3.675781 -7.664062 4.015625 -7.257812 4.515625 -6.75 C 5.328125 -7.21875 5.882812 -7.617188 6.1875 -7.953125 C 6.5 -8.285156 6.65625 -8.648438 6.65625 -9.046875 C 6.65625 -9.472656 6.507812 -9.8125 6.21875 -10.0625 C 5.9375 -10.3125 5.539062 -10.4375 5.03125 -10.4375 Z M 4.609375 -0.84375 C 5.847656 -0.84375 6.847656 -1.265625 7.609375 -2.109375 L 4.234375 -5.578125 C 3.347656 -5.078125 2.738281 -4.625 2.40625 -4.21875 C 2.070312 -3.8125 1.90625 -3.359375 1.90625 -2.859375 C 1.90625 -2.253906 2.148438 -1.765625 2.640625 -1.390625 C 3.140625 -1.023438 3.796875 -0.84375 4.609375 -0.84375 Z M 4.609375 -0.84375 "/></g></g></g><g fill="#daa520" fill-opacity="1"><g transform="translate(210.866752, 281.681934)"><g/></g></g><g fill="#daa520" fill-opacity="1"><g transform="translate(216.705744, 281.681934)"><g><path d="M 9.71875 -5.59375 L 10.84375 -5.59375 L 10.84375 -1.328125 C 10.320312 -0.867188 9.703125 -0.515625 8.984375 -0.265625 C 8.273438 -0.0234375 7.523438 0.09375 6.734375 0.09375 C 5.617188 0.09375 4.613281 -0.148438 3.71875 -0.640625 C 2.820312 -1.128906 2.113281 -1.804688 1.59375 -2.671875 C 1.082031 -3.546875 0.828125 -4.519531 0.828125 -5.59375 C 0.828125 -6.675781 1.082031 -7.648438 1.59375 -8.515625 C 2.113281 -9.390625 2.820312 -10.070312 3.71875 -10.5625 C 4.613281 -11.050781 5.625 -11.296875 6.75 -11.296875 C 7.601562 -11.296875 8.382812 -11.160156 9.09375 -10.890625 C 9.8125 -10.617188 10.414062 -10.21875 10.90625 -9.6875 L 10.171875 -8.921875 C 9.285156 -9.796875 8.160156 -10.234375 6.796875 -10.234375 C 5.890625 -10.234375 5.070312 -10.035156 4.34375 -9.640625 C 3.613281 -9.242188 3.039062 -8.6875 2.625 -7.96875 C 2.207031 -7.257812 2 -6.46875 2 -5.59375 C 2 -4.71875 2.207031 -3.925781 2.625 -3.21875 C 3.039062 -2.519531 3.609375 -1.96875 4.328125 -1.5625 C 5.054688 -1.15625 5.875 -0.953125 6.78125 -0.953125 C 7.9375 -0.953125 8.914062 -1.242188 9.71875 -1.828125 Z M 9.71875 -5.59375 "/></g></g></g><g fill="#daa520" fill-opacity="1"><g transform="translate(230.71877, 281.681934)"><g><path d="M 9.46875 0 L 6.90625 -3.59375 C 6.625 -3.5625 6.328125 -3.546875 6.015625 -3.546875 L 3.015625 -3.546875 L 3.015625 0 L 1.828125 0 L 1.828125 -11.203125 L 6.015625 -11.203125 C 7.441406 -11.203125 8.5625 -10.859375 9.375 -10.171875 C 10.1875 -9.492188 10.59375 -8.554688 10.59375 -7.359375 C 10.59375 -6.484375 10.367188 -5.742188 9.921875 -5.140625 C 9.484375 -4.535156 8.851562 -4.101562 8.03125 -3.84375 L 10.765625 0 Z M 5.984375 -4.5625 C 7.085938 -4.5625 7.929688 -4.804688 8.515625 -5.296875 C 9.109375 -5.785156 9.40625 -6.472656 9.40625 -7.359375 C 9.40625 -8.265625 9.109375 -8.957031 8.515625 -9.4375 C 7.929688 -9.925781 7.085938 -10.171875 5.984375 -10.171875 L 3.015625 -10.171875 L 3.015625 -4.5625 Z M 5.984375 -4.5625 "/></g></g></g><g fill="#daa520" fill-opacity="1"><g transform="translate(243.931992, 281.681934)"><g><path d="M 6.71875 0.09375 C 5.613281 0.09375 4.609375 -0.148438 3.703125 -0.640625 C 2.804688 -1.140625 2.101562 -1.820312 1.59375 -2.6875 C 1.082031 -3.550781 0.828125 -4.519531 0.828125 -5.59375 C 0.828125 -6.675781 1.082031 -7.648438 1.59375 -8.515625 C 2.101562 -9.378906 2.804688 -10.054688 3.703125 -10.546875 C 4.609375 -11.046875 5.613281 -11.296875 6.71875 -11.296875 C 7.832031 -11.296875 8.832031 -11.050781 9.71875 -10.5625 C 10.613281 -10.070312 11.316406 -9.390625 11.828125 -8.515625 C 12.335938 -7.648438 12.59375 -6.675781 12.59375 -5.59375 C 12.59375 -4.519531 12.335938 -3.546875 11.828125 -2.671875 C 11.316406 -1.804688 10.613281 -1.128906 9.71875 -0.640625 C 8.832031 -0.148438 7.832031 0.09375 6.71875 0.09375 Z M 6.71875 -0.953125 C 7.601562 -0.953125 8.398438 -1.148438 9.109375 -1.546875 C 9.828125 -1.953125 10.390625 -2.507812 10.796875 -3.21875 C 11.203125 -3.925781 11.40625 -4.71875 11.40625 -5.59375 C 11.40625 -6.46875 11.203125 -7.257812 10.796875 -7.96875 C 10.390625 -8.6875 9.828125 -9.242188 9.109375 -9.640625 C 8.398438 -10.035156 7.601562 -10.234375 6.71875 -10.234375 C 5.832031 -10.234375 5.03125 -10.035156 4.3125 -9.640625 C 3.59375 -9.242188 3.023438 -8.6875 2.609375 -7.96875 C 2.203125 -7.257812 2 -6.46875 2 -5.59375 C 2 -4.71875 2.203125 -3.925781 2.609375 -3.21875 C 3.023438 -2.507812 3.59375 -1.953125 4.3125 -1.546875 C 5.03125 -1.148438 5.832031 -0.953125 6.71875 -0.953125 Z M 6.71875 -0.953125 "/></g></g></g><g fill="#daa520" fill-opacity="1"><g transform="translate(259.000759, 281.681934)"><g><path d="M 17.203125 -11.203125 L 13.421875 0 L 12.171875 0 L 8.890625 -9.546875 L 5.59375 0 L 4.375 0 L 0.59375 -11.203125 L 1.8125 -11.203125 L 5.046875 -1.5625 L 8.390625 -11.203125 L 9.484375 -11.203125 L 12.78125 -1.515625 L 16.0625 -11.203125 Z M 17.203125 -11.203125 "/></g></g></g><g fill="#daa520" fill-opacity="1"><g transform="translate(278.420489, 281.681934)"><g><path d="M 4 -10.171875 L 0.0625 -10.171875 L 0.0625 -11.203125 L 9.125 -11.203125 L 9.125 -10.171875 L 5.1875 -10.171875 L 5.1875 0 L 4 0 Z M 4 -10.171875 "/></g></g></g><g fill="#daa520" fill-opacity="1"><g transform="translate(289.250284, 281.681934)"><g><path d="M 11.1875 -11.203125 L 11.1875 0 L 10.015625 0 L 10.015625 -5.171875 L 3.015625 -5.171875 L 3.015625 0 L 1.828125 0 L 1.828125 -11.203125 L 3.015625 -11.203125 L 3.015625 -6.203125 L 10.015625 -6.203125 L 10.015625 -11.203125 Z M 11.1875 -11.203125 "/></g></g></g><g fill="#daa520" fill-opacity="1"><g transform="translate(149.188457, 303.431932)"><g><path d="M 4.90625 0.09375 C 4.070312 0.09375 3.273438 -0.0351562 2.515625 -0.296875 C 1.753906 -0.566406 1.164062 -0.921875 0.75 -1.359375 L 1.21875 -2.265625 C 1.625 -1.859375 2.160156 -1.53125 2.828125 -1.28125 C 3.503906 -1.03125 4.195312 -0.90625 4.90625 -0.90625 C 5.914062 -0.90625 6.671875 -1.085938 7.171875 -1.453125 C 7.671875 -1.828125 7.921875 -2.304688 7.921875 -2.890625 C 7.921875 -3.335938 7.785156 -3.695312 7.515625 -3.96875 C 7.242188 -4.238281 6.910156 -4.441406 6.515625 -4.578125 C 6.117188 -4.722656 5.566406 -4.882812 4.859375 -5.0625 C 4.015625 -5.269531 3.34375 -5.472656 2.84375 -5.671875 C 2.34375 -5.867188 1.914062 -6.171875 1.5625 -6.578125 C 1.207031 -6.984375 1.03125 -7.53125 1.03125 -8.21875 C 1.03125 -8.789062 1.175781 -9.304688 1.46875 -9.765625 C 1.769531 -10.234375 2.226562 -10.601562 2.84375 -10.875 C 3.46875 -11.15625 4.238281 -11.296875 5.15625 -11.296875 C 5.789062 -11.296875 6.414062 -11.207031 7.03125 -11.03125 C 7.644531 -10.851562 8.175781 -10.609375 8.625 -10.296875 L 8.21875 -9.359375 C 7.75 -9.671875 7.25 -9.898438 6.71875 -10.046875 C 6.1875 -10.203125 5.664062 -10.28125 5.15625 -10.28125 C 4.175781 -10.28125 3.4375 -10.09375 2.9375 -9.71875 C 2.4375 -9.34375 2.1875 -8.851562 2.1875 -8.25 C 2.1875 -7.800781 2.320312 -7.441406 2.59375 -7.171875 C 2.875 -6.898438 3.21875 -6.691406 3.625 -6.546875 C 4.03125 -6.410156 4.582031 -6.253906 5.28125 -6.078125 C 6.101562 -5.878906 6.765625 -5.679688 7.265625 -5.484375 C 7.773438 -5.285156 8.207031 -4.984375 8.5625 -4.578125 C 8.914062 -4.179688 9.09375 -3.640625 9.09375 -2.953125 C 9.09375 -2.390625 8.9375 -1.875 8.625 -1.40625 C 8.320312 -0.945312 7.851562 -0.582031 7.21875 -0.3125 C 6.59375 -0.0390625 5.820312 0.09375 4.90625 0.09375 Z M 4.90625 0.09375 "/></g></g></g><g fill="#daa520" fill-opacity="1"><g transform="translate(160.674092, 303.431932)"><g><path d="M 4 -10.171875 L 0.0625 -10.171875 L 0.0625 -11.203125 L 9.125 -11.203125 L 9.125 -10.171875 L 5.1875 -10.171875 L 5.1875 0 L 4 0 Z M 4 -10.171875 "/></g></g></g><g fill="#daa520" fill-opacity="1"><g transform="translate(171.503878, 303.431932)"><g><path d="M 6.34375 0.09375 C 4.882812 0.09375 3.75 -0.320312 2.9375 -1.15625 C 2.132812 -1.988281 1.734375 -3.195312 1.734375 -4.78125 L 1.734375 -11.203125 L 2.90625 -11.203125 L 2.90625 -4.828125 C 2.90625 -3.523438 3.195312 -2.550781 3.78125 -1.90625 C 4.375 -1.269531 5.226562 -0.953125 6.34375 -0.953125 C 7.457031 -0.953125 8.304688 -1.269531 8.890625 -1.90625 C 9.484375 -2.550781 9.78125 -3.523438 9.78125 -4.828125 L 9.78125 -11.203125 L 10.921875 -11.203125 L 10.921875 -4.78125 C 10.921875 -3.195312 10.519531 -1.988281 9.71875 -1.15625 C 8.914062 -0.320312 7.789062 0.09375 6.34375 0.09375 Z M 6.34375 0.09375 "/></g></g></g><g fill="#daa520" fill-opacity="1"><g transform="translate(185.820826, 303.431932)"><g><path d="M 1.828125 -11.203125 L 6.390625 -11.203125 C 7.566406 -11.203125 8.609375 -10.960938 9.515625 -10.484375 C 10.421875 -10.015625 11.125 -9.351562 11.625 -8.5 C 12.132812 -7.65625 12.390625 -6.6875 12.390625 -5.59375 C 12.390625 -4.507812 12.132812 -3.539062 11.625 -2.6875 C 11.125 -1.84375 10.421875 -1.179688 9.515625 -0.703125 C 8.609375 -0.234375 7.566406 0 6.390625 0 L 1.828125 0 Z M 6.3125 -1.03125 C 7.300781 -1.03125 8.160156 -1.222656 8.890625 -1.609375 C 9.628906 -1.992188 10.203125 -2.53125 10.609375 -3.21875 C 11.015625 -3.90625 11.21875 -4.695312 11.21875 -5.59375 C 11.21875 -6.488281 11.015625 -7.28125 10.609375 -7.96875 C 10.203125 -8.664062 9.628906 -9.207031 8.890625 -9.59375 C 8.160156 -9.976562 7.300781 -10.171875 6.3125 -10.171875 L 3.015625 -10.171875 L 3.015625 -1.03125 Z M 6.3125 -1.03125 "/></g></g></g><g fill="#daa520" fill-opacity="1"><g transform="translate(200.681648, 303.431932)"><g><path d="M 1.828125 -11.203125 L 3.015625 -11.203125 L 3.015625 0 L 1.828125 0 Z M 1.828125 -11.203125 "/></g></g></g><g fill="#daa520" fill-opacity="1"><g transform="translate(207.16048, 303.431932)"><g><path d="M 6.71875 0.09375 C 5.613281 0.09375 4.609375 -0.148438 3.703125 -0.640625 C 2.804688 -1.140625 2.101562 -1.820312 1.59375 -2.6875 C 1.082031 -3.550781 0.828125 -4.519531 0.828125 -5.59375 C 0.828125 -6.675781 1.082031 -7.648438 1.59375 -8.515625 C 2.101562 -9.378906 2.804688 -10.054688 3.703125 -10.546875 C 4.609375 -11.046875 5.613281 -11.296875 6.71875 -11.296875 C 7.832031 -11.296875 8.832031 -11.050781 9.71875 -10.5625 C 10.613281 -10.070312 11.316406 -9.390625 11.828125 -8.515625 C 12.335938 -7.648438 12.59375 -6.675781 12.59375 -5.59375 C 12.59375 -4.519531 12.335938 -3.546875 11.828125 -2.671875 C 11.316406 -1.804688 10.613281 -1.128906 9.71875 -0.640625 C 8.832031 -0.148438 7.832031 0.09375 6.71875 0.09375 Z M 6.71875 -0.953125 C 7.601562 -0.953125 8.398438 -1.148438 9.109375 -1.546875 C 9.828125 -1.953125 10.390625 -2.507812 10.796875 -3.21875 C 11.203125 -3.925781 11.40625 -4.71875 11.40625 -5.59375 C 11.40625 -6.46875 11.203125 -7.257812 10.796875 -7.96875 C 10.390625 -8.6875 9.828125 -9.242188 9.109375 -9.640625 C 8.398438 -10.035156 7.601562 -10.234375 6.71875 -10.234375 C 5.832031 -10.234375 5.03125 -10.035156 4.3125 -9.640625 C 3.59375 -9.242188 3.023438 -8.6875 2.609375 -7.96875 C 2.203125 -7.257812 2 -6.46875 2 -5.59375 C 2 -4.71875 2.203125 -3.925781 2.609375 -3.21875 C 3.023438 -2.507812 3.59375 -1.953125 4.3125 -1.546875 C 5.03125 -1.148438 5.832031 -0.953125 6.71875 -0.953125 Z M 6.71875 -0.953125 "/></g></g></g></svg>